<?xml version="1.0" encoding="UTF-8"?>
<svg xmlns="http://www.w3.org/2000/svg" viewBox="0 0 512 512">
  <defs>
    <linearGradient id="bg-meranyan" x1="0" y1="0" x2="1" y2="1">
      <stop offset="0" stop-color="#3a1410"/>
      <stop offset="1" stop-color="#ff5a3c"/>
    </linearGradient>
  </defs>
  <rect width="512" height="512" fill="url(#bg-meranyan)"/>
  <circle cx="368" cy="104" r="8" fill="#ffd0a0" opacity=".55"/><circle cx="417" cy="142" r="8" fill="#ffd0a0" opacity=".55"/><circle cx="91" cy="167" r="8" fill="#ffd0a0" opacity=".55"/><circle cx="107" cy="185" r="4" fill="#ffd0a0" opacity=".55"/><circle cx="427" cy="175" r="7" fill="#ffd0a0" opacity=".55"/>
  <ellipse cx="180" cy="250" rx="70" ry="110" fill="#ffd0a0" opacity=".85"/>
        <ellipse cx="332" cy="250" rx="70" ry="110" fill="#ffd0a0" opacity=".85"/>
        <ellipse cx="256" cy="300" rx="95" ry="87" fill="#ff5a3c"/>
        <ellipse cx="256" cy="210" rx="79" ry="73" fill="#ffd0a0"/>
        <circle cx="240" cy="210" r="10" fill="#2a1810"/><circle cx="272" cy="210" r="10" fill="#2a1810"/>
  <circle cx="237" cy="207" r="3" fill="#fff"/><circle cx="269" cy="207" r="3" fill="#fff"/>
  <ellipse cx="256" cy="226" rx="6" ry="4" fill="#dc7882"/>
  <path d="M244 236 Q256 246 268 236" stroke="#502818" stroke-width="3" fill="none"/>
  <rect x="40" y="424" width="432" height="64" rx="16" fill="#0c0e1c" stroke="#ff5a3c" stroke-width="3"/>
  <text x="256" y="466" text-anchor="middle" font-size="24" font-family="Hiragino Sans, sans-serif" font-weight="800" fill="#ffd0a0">メラニャン</text>
</svg>