<?xml version="1.0" encoding="UTF-8"?>
<svg xmlns="http://www.w3.org/2000/svg" viewBox="0 0 512 512">
  <defs>
    <linearGradient id="bg-bloodwing" x1="0" y1="0" x2="1" y2="1">
      <stop offset="0" stop-color="#1c1034"/>
      <stop offset="1" stop-color="#a78bfa"/>
    </linearGradient>
  </defs>
  <rect width="512" height="512" fill="url(#bg-bloodwing)"/>
  <circle cx="386" cy="95" r="5" fill="#eee4ff" opacity=".55"/><circle cx="362" cy="63" r="8" fill="#eee4ff" opacity=".55"/><circle cx="126" cy="99" r="8" fill="#eee4ff" opacity=".55"/><circle cx="303" cy="151" r="7" fill="#eee4ff" opacity=".55"/><circle cx="405" cy="42" r="3" fill="#eee4ff" opacity=".55"/><circle cx="270" cy="178" r="4" fill="#eee4ff" opacity=".55"/>
  <ellipse cx="256" cy="280" rx="68" ry="122" fill="#a78bfa"/>
        <ellipse cx="256" cy="168" rx="64" ry="66" fill="#eee4ff"/>
        <rect x="240" y="310" width="12" height="70" rx="6" fill="#eee4ff"/>
        <rect x="260" y="310" width="12" height="70" rx="6" fill="#eee4ff"/>
        <circle cx="240" cy="168" r="10" fill="#2a1810"/><circle cx="272" cy="168" r="10" fill="#2a1810"/>
  <circle cx="237" cy="165" r="3" fill="#fff"/><circle cx="269" cy="165" r="3" fill="#fff"/>
  <ellipse cx="256" cy="184" rx="6" ry="4" fill="#dc7882"/>
  <path d="M244 194 Q256 204 268 194" stroke="#502818" stroke-width="3" fill="none"/>
        <polygon points="256,110 236,150 276,150" fill="#a78bfa"/>
  <rect x="40" y="424" width="432" height="64" rx="16" fill="#0c0e1c" stroke="#a78bfa" stroke-width="3"/>
  <text x="256" y="466" text-anchor="middle" font-size="24" font-family="Hiragino Sans, sans-serif" font-weight="800" fill="#eee4ff">ブラッドウイング</text>
</svg>