<?xml version="1.0" encoding="UTF-8"?>
<svg xmlns="http://www.w3.org/2000/svg" viewBox="0 0 512 512">
  <defs>
    <linearGradient id="bg-piyonyan" x1="0" y1="0" x2="1" y2="1">
      <stop offset="0" stop-color="#3a1410"/>
      <stop offset="1" stop-color="#ff5a3c"/>
    </linearGradient>
  </defs>
  <rect width="512" height="512" fill="url(#bg-piyonyan)"/>
  <circle cx="223" cy="60" r="8" fill="#ffd0a0" opacity=".55"/><circle cx="247" cy="154" r="4" fill="#ffd0a0" opacity=".55"/><circle cx="175" cy="103" r="8" fill="#ffd0a0" opacity=".55"/><circle cx="276" cy="127" r="4" fill="#ffd0a0" opacity=".55"/><circle cx="326" cy="44" r="6" fill="#ffd0a0" opacity=".55"/>
  <ellipse cx="170" cy="230" rx="90" ry="50" fill="#ffd0a0"/>
        <ellipse cx="342" cy="230" rx="90" ry="50" fill="#ffd0a0"/>
        <ellipse cx="256" cy="260" rx="46" ry="70" fill="#ff5a3c"/>
        <ellipse cx="256" cy="188" rx="40" ry="34" fill="#ffd0a0"/>
        <circle cx="240" cy="188" r="10" fill="#2a1810"/><circle cx="272" cy="188" r="10" fill="#2a1810"/>
  <circle cx="237" cy="185" r="3" fill="#fff"/><circle cx="269" cy="185" r="3" fill="#fff"/>
  <ellipse cx="256" cy="204" rx="6" ry="4" fill="#dc7882"/>
  <path d="M244 214 Q256 224 268 214" stroke="#502818" stroke-width="3" fill="none"/>
        <line x1="256" y1="330" x2="256" y2="390" stroke="#ff5a3c" stroke-width="8"/>
  <rect x="40" y="424" width="432" height="64" rx="16" fill="#0c0e1c" stroke="#ff5a3c" stroke-width="3"/>
  <text x="256" y="466" text-anchor="middle" font-size="24" font-family="Hiragino Sans, sans-serif" font-weight="800" fill="#ffd0a0">ピヨニャン</text>
</svg>