<?xml version="1.0" encoding="UTF-8"?>
<svg xmlns="http://www.w3.org/2000/svg" viewBox="0 0 512 512">
  <defs>
    <linearGradient id="bg-nosferan" x1="0" y1="0" x2="0" y2="1">
      <stop offset="0" stop-color="#1c1034"/>
      <stop offset="1" stop-color="#a78bfa"/>
    </linearGradient>
  </defs>
  <rect width="512" height="512" fill="url(#bg-nosferan)"/>
  <circle cx="380" cy="190" r="4" fill="#eee4ff" opacity=".55"/><circle cx="160" cy="82" r="6" fill="#eee4ff" opacity=".55"/><circle cx="325" cy="116" r="3" fill="#eee4ff" opacity=".55"/><circle cx="263" cy="214" r="6" fill="#eee4ff" opacity=".55"/>
  <ellipse cx="180" cy="250" rx="70" ry="110" fill="#eee4ff" opacity=".85"/>
        <ellipse cx="332" cy="250" rx="70" ry="110" fill="#eee4ff" opacity=".85"/>
        <ellipse cx="256" cy="300" rx="105" ry="97" fill="#a78bfa"/>
        <ellipse cx="256" cy="210" rx="89" ry="83" fill="#eee4ff"/>
        <circle cx="240" cy="210" r="10" fill="#2a1810"/><circle cx="272" cy="210" r="10" fill="#2a1810"/>
  <circle cx="237" cy="207" r="3" fill="#fff"/><circle cx="269" cy="207" r="3" fill="#fff"/>
  <ellipse cx="256" cy="226" rx="6" ry="4" fill="#dc7882"/>
  <path d="M244 236 Q256 246 268 236" stroke="#502818" stroke-width="3" fill="none"/>
  <rect x="40" y="424" width="432" height="64" rx="16" fill="#0c0e1c" stroke="#a78bfa" stroke-width="3"/>
  <text x="256" y="466" text-anchor="middle" font-size="24" font-family="Hiragino Sans, sans-serif" font-weight="800" fill="#eee4ff">ノスフェラン</text>
</svg>