<?xml version="1.0" encoding="UTF-8"?>
<svg xmlns="http://www.w3.org/2000/svg" viewBox="0 0 512 512">
  <defs>
    <linearGradient id="bg-shadekit" x1="0" y1="0" x2="0" y2="1">
      <stop offset="0" stop-color="#1c1034"/>
      <stop offset="1" stop-color="#a78bfa"/>
    </linearGradient>
  </defs>
  <rect width="512" height="512" fill="url(#bg-shadekit)"/>
  <circle cx="139" cy="205" r="7" fill="#eee4ff" opacity=".55"/><circle cx="252" cy="83" r="8" fill="#eee4ff" opacity=".55"/><circle cx="182" cy="166" r="7" fill="#eee4ff" opacity=".55"/><circle cx="203" cy="45" r="7" fill="#eee4ff" opacity=".55"/><circle cx="82" cy="144" r="6" fill="#eee4ff" opacity=".55"/>
  <rect x="236" y="280" width="40" height="120" fill="#6b3f1a"/>
        <circle cx="256" cy="220" r="100" fill="#a78bfa"/>
        <circle cx="200" cy="190" r="40" fill="#eee4ff"/>
        <circle cx="312" cy="190" r="40" fill="#eee4ff"/>
        <circle cx="256" cy="150" r="36" fill="#eee4ff"/>
        <ellipse cx="256" cy="230" rx="28" ry="22" fill="#1c1034"/>
        <circle cx="240" cy="226" r="10" fill="#2a1810"/><circle cx="272" cy="226" r="10" fill="#2a1810"/>
  <circle cx="237" cy="223" r="3" fill="#fff"/><circle cx="269" cy="223" r="3" fill="#fff"/>
  <ellipse cx="256" cy="242" rx="6" ry="4" fill="#dc7882"/>
  <path d="M244 252 Q256 262 268 252" stroke="#502818" stroke-width="3" fill="none"/>
  <rect x="40" y="424" width="432" height="64" rx="16" fill="#0c0e1c" stroke="#a78bfa" stroke-width="3"/>
  <text x="256" y="466" text-anchor="middle" font-size="24" font-family="Hiragino Sans, sans-serif" font-weight="800" fill="#eee4ff">カゲコ</text>
</svg>