<?xml version="1.0" encoding="UTF-8"?>
<svg xmlns="http://www.w3.org/2000/svg" viewBox="0 0 512 512">
  <defs>
    <linearGradient id="bg-thornback" x1="0" y1="0" x2="1" y2="1">
      <stop offset="0" stop-color="#10381c"/>
      <stop offset="1" stop-color="#4ade80"/>
    </linearGradient>
  </defs>
  <rect width="512" height="512" fill="url(#bg-thornback)"/>
  <circle cx="175" cy="210" r="8" fill="#d8ffe4" opacity=".55"/><circle cx="284" cy="104" r="7" fill="#d8ffe4" opacity=".55"/><circle cx="258" cy="176" r="6" fill="#d8ffe4" opacity=".55"/><circle cx="312" cy="149" r="5" fill="#d8ffe4" opacity=".55"/>
  <ellipse cx="256" cy="280" rx="125" ry="109" fill="#4ade80"/>
        <ellipse cx="256" cy="280" rx="97" ry="83" fill="#10381c"/>
        <ellipse cx="256" cy="200" rx="58" ry="50" fill="#d8ffe4"/>
        <circle cx="240" cy="200" r="10" fill="#2a1810"/><circle cx="272" cy="200" r="10" fill="#2a1810"/>
  <circle cx="237" cy="197" r="3" fill="#fff"/><circle cx="269" cy="197" r="3" fill="#fff"/>
  <ellipse cx="256" cy="216" rx="6" ry="4" fill="#dc7882"/>
  <path d="M244 226 Q256 236 268 226" stroke="#502818" stroke-width="3" fill="none"/>
        <rect x="200" y="330" width="24" height="50" rx="8" fill="#d8ffe4"/>
        <rect x="288" y="330" width="24" height="50" rx="8" fill="#d8ffe4"/>
  <rect x="40" y="424" width="432" height="64" rx="16" fill="#0c0e1c" stroke="#4ade80" stroke-width="3"/>
  <text x="256" y="466" text-anchor="middle" font-size="24" font-family="Hiragino Sans, sans-serif" font-weight="800" fill="#d8ffe4">ソーンバック</text>
</svg>